<?xml version="1.0" encoding="utf-8"?>
<svg version="1.1" id="Layer_1" xmlns="http://www.w3.org/2000/svg" xmlns:xlink="http://www.w3.org/1999/xlink" x="0px" y="0px"
	 viewBox="0 0 1808.14 1660.051" enable-background="new 0 0 1808.14 1660.051" xml:space="preserve">
<g>
	<path d="M1122.254,1617.918v-506.08H588.328l-226.404,242.143l6.054,276.044H175.473l-18.161-532.716l53.272-69.011l-8.475-342.633
		c0,0-131.238-118.18-161.025-145.286c-30.268-27.544,27.846-102.003,72.643-70.222c43.313,30.729,154.972,145.286,154.972,145.286
		s458.257-12.713,638.048-19.371c46.811-1.734,82.302-55.365,118.651-102.911l300.258,277.254l14.529,845.081L1122.254,1617.918z"/>
	<path d="M1388.612,692.325l-290.572-269.99l358.456-388.999c6.343-6.884,17.834-2.304,17.702,7.056l-2.046,145.248l303.285,304.495
		l-152.656,165.842c-16.706,18.149-44.536,20.46-64.007,5.316l-79.963-62.194L1388.612,692.325z"/>
</g>
</svg>
